<svg version="1.1" xmlns="http://www.w3.org/2000/svg" xmlns:xlink="http://www.w3.org/1999/xlink" width="512.000000pt" height="512.000000pt" viewBox="0,0,256,256"><g fill="#0097a7" fill-rule="nonzero" stroke="none" stroke-width="1" stroke-linecap="butt" stroke-linejoin="miter" stroke-miterlimit="10" stroke-dasharray="" stroke-dashoffset="0" font-family="none" font-weight="none" font-size="none" text-anchor="none" style="mix-blend-mode: normal"><g transform="translate(0,2) scale(0.5,0.5)"><g transform="translate(0,512) scale(0.1,-0.1)"><path d="M345,3725l-25,-24v-420c0,-291 3,-428 11,-445c7,-13 25,-30 40,-37c37,-15 82,2 98,37c8,17 11,154 11,445v420l-25,24c-15,16 -36,25 -55,25c-19,0 -40,-9 -55,-25z"></path><path d="M4665,3725l-25,-24v-420c0,-291 3,-428 11,-445c16,-35 61,-52 98,-37c15,7 33,24 40,37c8,17 11,154 11,445v420l-25,24c-15,16 -36,25 -55,25c-19,0 -40,-9 -55,-25z"></path><path d="M985,3561c-16,-10 -83,-72 -147,-138c-158,-160 -158,-146 13,-319c72,-73 142,-135 156,-139c52,-13 113,48 97,97c-3,12 -29,46 -57,75l-50,53h1564h1563l-46,-47c-58,-60 -73,-95 -56,-131c16,-33 59,-55 91,-47c14,4 84,66 156,139c172,174 172,158 5,327c-70,70 -139,133 -155,139c-35,15 -78,-4 -97,-42c-17,-36 -2,-71 56,-130l46,-48h-1563h-1564l52,54c49,53 56,67 51,111c-5,50 -68,76 -115,46z"></path><path d="M364,2398c-42,-20 -44,-40 -44,-479v-420l25,-24l24,-25h2191h2191l24,25l25,24v420c0,287 -4,428 -11,444c-16,36 -50,47 -144,47h-85v-95c0,-88 -2,-98 -25,-120c-32,-33 -78,-33 -110,0c-23,22 -25,32 -25,120v95h-80h-80v-175c0,-173 0,-176 -25,-200c-32,-33 -78,-33 -110,0c-25,24 -25,27 -25,200v175h-80h-80v-95c0,-88 -2,-98 -25,-120c-32,-33 -78,-33 -110,0c-23,22 -25,32 -25,120v95h-80h-80v-175c0,-173 0,-176 -25,-200c-15,-16 -36,-25 -55,-25c-19,0 -40,9 -55,25c-25,24 -25,27 -25,200v175h-80h-80v-95c0,-88 -2,-98 -25,-120c-32,-33 -78,-33 -110,0c-23,22 -25,32 -25,120v95h-80h-80v-175c0,-173 0,-176 -25,-200c-32,-33 -78,-33 -110,0c-25,24 -25,27 -25,200v175h-80h-80v-95c0,-88 -2,-98 -25,-120c-15,-16 -36,-25 -55,-25c-19,0 -40,9 -55,25c-23,22 -25,32 -25,120v95h-80h-80v-175c0,-173 0,-176 -25,-200c-32,-33 -78,-33 -110,0c-25,24 -25,27 -25,200v175h-80h-80v-95c0,-88 -2,-98 -25,-120c-32,-33 -78,-33 -110,0c-23,22 -25,32 -25,120v95h-80h-80v-175c0,-173 0,-176 -25,-200c-15,-16 -36,-25 -55,-25c-19,0 -40,9 -55,25c-25,24 -25,27 -25,200v175h-80h-80v-95c0,-88 -2,-98 -25,-120c-15,-16 -36,-25 -55,-25c-19,0 -40,9 -55,25c-23,22 -25,32 -25,120v95h-80h-80v-175c0,-173 0,-176 -25,-200c-15,-16 -36,-25 -55,-25c-19,0 -40,9 -55,25c-25,24 -25,27 -25,200v175h-80h-80v-95c0,-88 -2,-98 -25,-120c-32,-33 -78,-33 -110,0c-23,22 -25,32 -25,120v95l-87,-1c-49,0 -98,-5 -109,-11z"></path></g></g></g></svg>