<svg version="1.1" xmlns="http://www.w3.org/2000/svg" xmlns:xlink="http://www.w3.org/1999/xlink" width="1220.000000pt" height="370.000000pt" viewBox="0,0,256,77.625"><g fill="#0e7490" fill-rule="nonzero" stroke="none" stroke-width="1" stroke-linecap="butt" stroke-linejoin="miter" stroke-miterlimit="10" stroke-dasharray="" stroke-dashoffset="0" font-family="none" font-weight="none" font-size="none" text-anchor="none" style="mix-blend-mode: normal"><g transform="translate(0.47633,0.00578) scale(0.20984,0.20984)"><g transform="translate(0,370) scale(0.1,-0.1)"><path d="M6265,3590c-74,-15 -249,-81 -325,-122c-97,-53 -242,-152 -465,-319c-420,-315 -573,-406 -822,-492c-54,-19 -117,-38 -140,-42c-24,-4 -43,-11 -43,-16c0,-5 16,-19 35,-31c19,-13 35,-28 35,-35c0,-11 -55,-35 -155,-66c-211,-65 -525,-171 -525,-177c0,-12 140,-72 158,-67c9,2 98,30 197,60c191,60 536,150 823,217c260,60 250,56 254,87c4,35 48,65 198,133c313,143 561,204 902,220c97,4 181,11 187,15c14,8 119,217 156,310c25,64 26,73 16,121c-15,65 -73,135 -141,169c-79,40 -240,56 -345,35zM6465,3366c19,-19 44,-36 57,-38c19,-2 24,-11 30,-48c3,-25 7,-70 7,-101c1,-54 -1,-59 -38,-92c-46,-41 -92,-67 -119,-67c-30,0 -131,78 -138,107c-9,33 3,168 16,193c6,11 21,20 34,20c13,0 41,13 62,29c21,16 43,30 47,30c4,1 23,-14 42,-33z"></path><path d="M5225,3104c-498,-302 -664,-408 -652,-420c9,-9 172,57 276,112c141,74 352,215 536,357c149,115 225,177 215,176c-3,-1 -171,-102 -375,-225z"></path><path d="M6400,2869c-154,-7 -230,-18 -429,-65c-149,-35 -472,-146 -460,-158c2,-3 105,-20 229,-40c447,-71 859,-75 1043,-11c70,24 117,51 124,71c4,11 -145,102 -277,171l-75,39z"></path><path d="M2830,2814c-133,-20 -210,-65 -210,-122c0,-43 68,-129 196,-247c140,-128 534,-516 534,-526c0,-9 0,-9 -230,-89c-268,-93 -563,-203 -695,-260c-117,-50 -264,-124 -230,-116c142,35 1271,242 1918,352c284,49 452,81 440,86c-10,4 -76,28 -148,54c-424,151 -1272,572 -1419,705c-23,21 -28,31 -20,39c30,30 279,37 639,20c248,-13 450,-37 672,-82l163,-32l29,34l29,35l-36,13c-135,48 -604,118 -877,132c-196,9 -699,12 -755,4z"></path><path d="M6840,2493c-30,-2 -170,-10 -310,-18c-140,-8 -266,-15 -280,-15c-14,0 74,-38 195,-84c121,-46 271,-104 333,-128c107,-42 116,-44 180,-37c37,5 211,19 387,34c473,38 462,21 99,148l-309,108l-120,-3c-66,-1 -145,-3 -175,-5z"></path><path d="M5525,2415c-573,-97 -1263,-251 -1259,-280c2,-10 175,-70 379,-131c163,-49 215,-51 415,-20c236,37 952,130 1240,161c135,15 249,30 253,34c23,22 -671,282 -744,280c-19,-1 -146,-20 -284,-44zM5925,2278c77,-33 144,-63 149,-68c15,-15 -15,-20 -354,-65c-146,-20 -388,-53 -538,-75c-150,-22 -285,-40 -300,-40c-33,0 -302,80 -302,90c0,18 932,214 1105,232c44,5 84,-8 240,-74z"></path><path d="M9750,2233c-2074,-27 -4660,-337 -7610,-912c-250,-49 -472,-92 -492,-95c-75,-13 -321,-201 -531,-406l-129,-125l32,-53c21,-33 40,-52 52,-52c11,0 64,11 117,25c198,50 643,123 971,159c402,45 532,51 1075,50c943,-1 1501,-52 2510,-230c322,-57 301,-57 1040,26c1525,172 2611,357 3815,650c384,94 469,108 295,49c-242,-81 -841,-247 -1264,-350c-560,-136 -969,-219 -1591,-324c-255,-42 -425,-75 -410,-78c14,-3 72,-11 130,-17c429,-45 850,-129 1382,-277l236,-65l129,47c471,175 995,466 1433,799c316,240 672,562 925,835c77,84 143,158 147,165c8,15 -164,14 -862,-5c-1549,-40 -3634,-214 -5457,-454c-104,-14 -276,-36 -383,-50c-1035,-135 -3422,-510 -3613,-569c-27,-8 -109,-49 -183,-91c-75,-42 -138,-75 -140,-72c-8,7 84,78 196,153l95,63l425,81c2324,441 4459,739 6345,885c1120,86 1761,114 2670,116c341,1 663,4 715,8l95,6l-110,18c-236,37 -521,61 -935,76c-284,11 -838,18 -1120,14z"></path><path d="M2966,1969c-136,-69 -332,-177 -371,-207l-20,-14l20,7c11,4 146,52 300,107c154,55 282,102 284,104c6,5 -39,53 -59,64c-11,6 -59,-13 -154,-61z"></path><path d="M3095,679c-822,-14 -1734,-134 -2505,-330c-263,-66 -493,-131 -440,-124c138,18 964,86 1405,115c1062,69 1694,82 3345,70l635,-4l195,47c107,26 206,50 220,54l25,6l-30,8c-114,34 -1079,122 -1610,148c-271,14 -786,18 -1240,10z"></path><path d="M6440,450c-208,-20 -635,-91 -653,-109c-4,-4 102,-11 235,-14c630,-17 2395,-129 3192,-202c322,-30 358,-30 261,-4c-83,22 -410,95 -620,138c-380,77 -957,161 -1245,181c-201,14 -1054,21 -1170,10z"></path></g></g></g></svg>