<svg version="1.1" xmlns="http://www.w3.org/2000/svg" xmlns:xlink="http://www.w3.org/1999/xlink" width="512.000000pt" height="512.000000pt" viewBox="0,0,256,256"><g fill="#0097a7" fill-rule="nonzero" stroke="none" stroke-width="1" stroke-linecap="butt" stroke-linejoin="miter" stroke-miterlimit="10" stroke-dasharray="" stroke-dashoffset="0" font-family="none" font-weight="none" font-size="none" text-anchor="none" style="mix-blend-mode: normal"><g transform="translate(-0.06837,0.02571) scale(0.5,0.5)"><g transform="translate(0,512) scale(0.1,-0.1)"><path d="M1325,4986c-139,-44 -234,-143 -269,-281c-13,-48 -16,-124 -16,-392v-333h1415h1415v323c0,350 -8,423 -54,501c-39,65 -106,126 -176,160l-65,31l-295,3l-295,2l-185,-322c-102,-178 -197,-336 -213,-352c-26,-26 -33,-28 -83,-24c-46,4 -61,10 -87,37c-27,26 -32,39 -32,79c0,42 15,72 153,310c83,145 152,265 152,268c0,2 -52,3 -116,2l-116,-3l-185,-320c-101,-176 -197,-332 -214,-347c-22,-21 -40,-28 -70,-28c-71,0 -118,38 -133,106c-8,37 3,60 187,377l126,217h-117h-117l-194,-335c-208,-361 -211,-365 -292,-365c-35,0 -48,6 -80,39c-31,31 -39,46 -39,75c0,44 -1,43 160,321c70,121 132,230 139,243l12,22l-138,-1c-82,0 -154,-6 -178,-13z"></path><path d="M980,3855c-49,-15 -102,-60 -128,-109c-26,-49 -22,-142 8,-194c29,-51 94,-97 149,-106l39,-6l22,-82c67,-250 120,-374 193,-448c85,-86 -14,-80 1182,-80c733,0 1072,3 1100,11c58,16 144,107 188,200c31,63 70,184 116,356c11,39 14,42 63,53c113,28 184,141 157,252c-16,71 -74,133 -142,153c-73,22 -2877,21 -2947,0zM3432,3183c22,-20 23,-51 1,-75c-15,-16 -36,-18 -238,-18c-237,0 -245,2 -245,51c0,56 11,59 247,59c187,0 219,-2 235,-17z"></path><path d="M4825,3394c-123,-22 -230,-51 -282,-76c-46,-22 -62,-23 -327,-28l-280,-5l-27,-95c-15,-52 -37,-116 -48,-142l-20,-48h323c319,0 324,0 377,-24c69,-30 196,-62 331,-81c94,-14 110,-14 141,-1c128,53 143,399 21,495c-32,25 -89,26 -209,5z"></path><path d="M1687,2713c-12,-11 -8,-2234 3,-2294c32,-166 167,-286 336,-297c100,-6 159,15 235,85c103,96 102,94 459,1348c176,622 323,1138 326,1148c5,16 -32,17 -674,17c-373,0 -682,-3 -685,-7z"></path><path d="M177,2186c-71,-26 -113,-62 -144,-123c-26,-53 -28,-67 -27,-168c0,-121 19,-211 94,-445l39,-125l-29,-30c-37,-38 -50,-74 -50,-136c0,-59 17,-104 53,-140l26,-25l-40,-125c-75,-238 -93,-323 -94,-449c0,-109 1,-118 30,-170c50,-91 147,-139 260,-127c62,6 107,27 153,71c44,41 58,69 72,145c19,108 -5,249 -91,524l-40,128l28,34l28,34h173l172,1l-7,28c-9,33 -9,107 0,145l7,27l-172,1h-173l-28,34l-28,33l50,161c61,198 83,303 85,406c1,110 -17,168 -73,226c-69,71 -181,98 -274,65z"></path><path d="M1025,1348c-155,-54 -182,-259 -47,-353l44,-30l274,-3l274,-3v200v201l-257,-1c-152,0 -270,-5 -288,-11z"></path></g></g></g></svg>