<svg version="1.1" xmlns="http://www.w3.org/2000/svg" xmlns:xlink="http://www.w3.org/1999/xlink" width="512.000000pt" height="512.000000pt" viewBox="0,0,256,256"><g fill="#0097a7" fill-rule="nonzero" stroke="none" stroke-width="1" stroke-linecap="butt" stroke-linejoin="miter" stroke-miterlimit="10" stroke-dasharray="" stroke-dashoffset="0" font-family="none" font-weight="none" font-size="none" text-anchor="none" style="mix-blend-mode: normal"><g transform="translate(-0.03188,-0.01843) scale(0.5,0.5)"><g transform="translate(0,512) scale(0.1,-0.1)"><path d="M1110,4694c-84,-17 -229,-90 -305,-151c-162,-131 -260,-325 -272,-538c-8,-139 13,-239 79,-375c44,-91 62,-115 142,-195c76,-76 106,-99 186,-138c121,-59 207,-80 335,-80c136,0 262,31 361,88c39,23 42,28 64,112c44,170 156,357 277,460l56,48l-6,90c-14,205 -113,399 -272,528c-77,63 -220,133 -310,152c-87,18 -249,18 -335,-1z"></path><path d="M3670,4695c-85,-19 -229,-91 -305,-152c-150,-122 -251,-310 -271,-508l-6,-61l43,-29c191,-125 352,-384 384,-612c6,-48 9,-52 48,-67c93,-35 173,-49 277,-49c133,0 217,20 340,80c80,39 110,62 186,138c80,80 98,104 142,195c66,136 87,236 79,375c-18,318 -228,583 -538,680c-75,24 -292,30 -379,10z"></path><path d="M2473,3930c-184,-33 -357,-138 -468,-285c-63,-84 -95,-145 -127,-245c-19,-64 -23,-96 -23,-215c0,-154 14,-213 77,-338c214,-424 782,-541 1144,-235c277,234 350,610 181,933c-31,60 -65,103 -132,170c-101,101 -196,158 -325,195c-86,24 -247,34 -327,20z"></path><path d="M769,3140c-379,-80 -671,-375 -749,-757c-19,-95 -20,-131 -18,-539l3,-437l150,-43c168,-49 419,-105 570,-129c100,-16 351,-45 391,-45c21,0 22,4 27,208c4,181 8,220 31,307c50,191 172,400 313,537c110,107 298,222 421,259c23,7 42,15 42,19c0,3 -14,19 -31,36c-119,113 -225,346 -245,540l-7,64l-406,-1c-352,0 -417,-3 -492,-19z"></path><path d="M3526,3138c-3,-13 -8,-48 -11,-78c-17,-151 -95,-330 -201,-461c-36,-45 -64,-82 -62,-84c2,-1 29,-12 60,-23c268,-99 492,-301 623,-562c87,-174 113,-293 122,-557c6,-189 6,-193 27,-188c12,2 66,7 121,10c294,19 631,96 838,192l77,36v430c0,393 -2,437 -21,530c-77,385 -370,679 -753,758c-79,16 -138,19 -453,19h-363z"></path><path d="M2177,2379c-242,-25 -480,-153 -636,-341c-73,-87 -163,-261 -193,-373c-21,-76 -22,-103 -26,-556l-3,-476l123,-36c262,-77 483,-124 728,-157c199,-27 637,-38 814,-21c331,33 616,100 814,192l84,39l-5,452c-5,504 -8,529 -74,688c-140,333 -440,553 -802,590c-119,12 -709,11 -824,-1z"></path></g></g></g></svg>